<?xml version="1.0" encoding="utf-8"?>
<!-- Generator: Adobe Illustrator 21.0.0, SVG Export Plug-In . SVG Version: 6.00 Build 0)  -->
<svg version="1.1"
	xmlns="http://www.w3.org/2000/svg"
	xmlns:xlink="http://www.w3.org/1999/xlink" x="0px" y="0px" viewBox="0 0 35 35" style="enable-background:new 0 0 35 35;" xml:space="preserve">
	<path d="M34,29.4l-5.8-5.8c1.5-2.4,2.4-5.2,2.4-8.2C30.7,6.9,23.8,0,15.3,0C6.9,0,0,6.9,0,15.3
		c0,8.5,6.9,15.3,15.3,15.3c3,0,5.9-0.9,8.2-2.4l5.8,5.8c1.3,1.3,3.4,1.3,4.6,0C35.3,32.8,35.3,30.7,34,29.4z M15.4,25.4
		c-5.6,0-10.1-4.5-10.1-10.1S9.8,5.3,15.4,5.3c5.6,0,10.1,4.5,10.1,10.1S20.9,25.4,15.4,25.4z"/>
</svg>
